<svg xmlns="http://www.w3.org/2000/svg" xmlns:svg="http://www.w3.org/2000/svg" xmlns:xlink="http://www.w3.org/1999/xlink" version="1.0" height="484.0000560283661pt" width="759.9999952316284pt" viewBox="490 458 767.9999952316284 490.0000560283661" ><defs><style type="text/css">
            @font-face {
                font-family: 'noto_regular';
                src: url('https://app.creately.com/diagram/assets/fonts/noto/noto-regular.woff') format('woff'),
                     url('https://app.creately.com/diagram/assets/fonts/noto/noto-regular.woff2') format('woff2');
                font-weight: normal;
                font-style: normal;
            }
        p {
            margin: 0;
        }
        </style></defs><defs><style>
            span{ display: inline-block; }
        </style></defs><g id="1jmb97qw6l"><g transform="translate(495 670)"><path d="M 18.012,6.306 C 18.01199989096548,10.7785400853223 23.91366648948557,13.573877735902542 28.634999877336163,11.33760777070806 C 30.826178415888567,10.29975122646299 32.1760000506031,8.381713160394952 32.176,6.306 C 32.176000109034526,1.8334599146777002 26.27433351051443,-0.9618777359025432 21.55300012266384,1.2743922292919398 C 19.361821584111432,2.31224877353701 18.011999949396902,4.230286839605047 18.012,6.306" fill="rgb(255, 255, 255)" stroke="rgb(94, 92, 167)" stroke-width="1.5" vector-effect="non-scaling-stroke"/><path d="M 8.744,17.991 C 8.744,17.991 26.087,6.301 42.598,18.368 C 42.598,18.368 43.848,20.883 44.123,22.264999999999997 L 50.507999999999996,44.260999999999996 C 50.507999999999996,44.260999999999996 48.077999999999996,51.489999999999995 42.87499999999999,45.519999999999996 L 37.428,26.79 C 37.428,26.79 36.943999999999996,26.233999999999998 36.5,26.31 C 35.609,26.462999999999997 34.271,27.081 34.271,29.43 L 34.271,86.369 L 34.271,88.256 C 34.271,88.256 31.324,92.969 28.306,88.507 L 28.306,61.985 L 23.034,61.985 L 23.034,87.863 C 23.034,87.863 21.901999999999997,90.602 19.622999999999998,90.497 C 17.346999999999998,90.393 16.235,88.256 16.235,88.256 L 16.235,28.801 C 16.235,28.801 15.959,24.778999999999996 13.462,26.79 C 13.462,26.79 8.049,47.027 6.2459999999999996,47.405 C 1.2499999999999991,51.113 0.5069999999999997,45.278 0.5069999999999997,45.278 C 0.5069999999999997,45.278 7.357,18.368 8.744,17.991 Z" fill="rgb(255, 255, 255)" stroke="rgb(94, 92, 167)" stroke-width="1.5" vector-effect="non-scaling-stroke"/></g><g transform="translate(505, 771) rotate(0, 0, 0)" width="36" height="19"><text text-decoration="none" x="0" fill="#000000" font-size="9pt" font-family="Arial"  y="15">Actor&#160;</text><text text-decoration="none" x="32" fill="#4b4b4b" font-size="10pt" font-family="noto_regular"  y="15"></text></g></g><g id="1i8g0isfvv"><g transform="translate(575 485)"><rect x="0" y="0" width="679.9999952316284" height="460.0000560283661" fill="rgba(255,255,255,1)" stroke="#000000" stroke-width="1.5" stroke-linecap="round" stroke-linejoin="round"/></g><g transform="translate(892.4999976158142, 495) rotate(0, 22.5, 0)" width="45" height="18"><text text-decoration="none" x="1" fill="rgb(84, 84, 84)" font-size="10pt" font-family="noto_regular"  y="15">System</text><text text-decoration="none" x="44" fill="#4b4b4b" font-size="10pt" font-family="noto_regular"  y="15"></text></g><g transform="translate(892.4999976158142, 461) rotate(0, 22.5, 19)" width="45" height="19"><text text-decoration="none" x="2.5" fill="rgb(0, 0, 0)" font-size="9pt" font-family="Arial"  y="15">System</text><text text-decoration="none" x="42.5" fill="#4b4b4b" font-size="10pt" font-family="noto_regular"  y="15"></text></g></g><g id="8vlxrh3t36"><g transform="translate(795 515)"><ellipse cx="140.49999976158142" cy="30.5" rx="140.49999976158142" ry="30.5" fill="rgba(255,255,255,1)" stroke="#5e5ca7" stroke-width="1.5" stroke-linecap="round" stroke-linejoin="round"/></g><g transform="translate(859.9999997615814, 536) rotate(0, 75.5, 9.5)" width="151" height="19"><text text-decoration="none" x="9" fill="rgb(0, 0, 0)" font-size="9pt" font-family="Arial"  y="15">Current&#160;</text><text text-decoration="none" x="52" fill="rgb(0, 0, 0)" font-size="9pt" font-family="Arial"  y="15">weather&#160;</text><text text-decoration="none" x="98" fill="rgb(0, 0, 0)" font-size="9pt" font-family="Arial"  y="15">forecast</text><text text-decoration="none" x="142" fill="#4b4b4b" font-size="10pt" font-family="noto_regular"  y="15"></text></g></g><g id="2f6k4nr2m3"><g transform="translate(790 615)"><ellipse cx="134.28617429733276" cy="30.5" rx="134.28617429733276" ry="30.5" fill="rgba(255,255,255,1)" stroke="#5e5ca7" stroke-width="1.5" stroke-linecap="round" stroke-linejoin="round"/></g><g transform="translate(837.2861742973328, 636) rotate(0, 87, 9.5)" width="174" height="19"><text text-decoration="none" x="10" fill="rgb(0, 0, 0)" font-size="9pt" font-family="Arial"  y="15">Seven&#160;</text><text text-decoration="none" x="45" fill="rgb(0, 0, 0)" font-size="9pt" font-family="Arial"  y="15">days&#160;</text><text text-decoration="none" x="74" fill="rgb(0, 0, 0)" font-size="9pt" font-family="Arial"  y="15">weather&#160;</text><text text-decoration="none" x="120" fill="rgb(0, 0, 0)" font-size="9pt" font-family="Arial"  y="15">forecast</text><text text-decoration="none" x="164" fill="#4b4b4b" font-size="10pt" font-family="noto_regular"  y="15"></text></g></g><g id="25u2wip5bu"><g transform="translate(795 715)"><ellipse cx="134.28617429733276" cy="30.5" rx="134.28617429733276" ry="30.5" fill="rgba(255,255,255,1)" stroke="#5e5ca7" stroke-width="1.5" stroke-linecap="round" stroke-linejoin="round"/></g><g transform="translate(846.7861742973328, 736) rotate(0, 82.5, 9.5)" width="165" height="19"><text text-decoration="none" x="7" fill="rgb(0, 0, 0)" font-size="9pt" font-family="Arial"  y="15">Regional&#160;</text><text text-decoration="none" x="57" fill="rgb(0, 0, 0)" font-size="9pt" font-family="Arial"  y="15">based&#160;</text><text text-decoration="none" x="93" fill="rgb(0, 0, 0)" font-size="9pt" font-family="Arial"  y="15">rainforecast</text><text text-decoration="none" x="158" fill="#4b4b4b" font-size="10pt" font-family="noto_regular"  y="15"></text></g></g><g id="bsgx7g7pvz"><g transform="translate(795 815)"><ellipse cx="134.28617429733276" cy="30.5" rx="134.28617429733276" ry="30.5" fill="rgba(255,255,255,1)" stroke="#5e5ca7" stroke-width="1.5" stroke-linecap="round" stroke-linejoin="round"/></g><g transform="translate(883.7861742973328, 836) rotate(0, 45.5, 9.5)" width="91" height="19"><text text-decoration="none" x="5" fill="rgb(0, 0, 0)" font-size="9pt" font-family="Arial"  y="15">Rain&#160;</text><text text-decoration="none" x="32" fill="rgb(0, 0, 0)" font-size="9pt" font-family="Arial"  y="15">prediction</text><text text-decoration="none" x="86" fill="#4b4b4b" font-size="10pt" font-family="noto_regular"  y="15"></text></g></g><g id="2h5jyark6s"><g><path d="M 795,545 L 545,715" fill="none" stroke="#5e5ca7" stroke-width="1.5" stroke-linecap="round" stroke-linejoin="round"/></g></g><g id="a8x0pzr9bu"><g><path d="M 790,645 L 545,715" fill="none" stroke="#5e5ca7" stroke-width="1.5" stroke-linecap="round" stroke-linejoin="round"/></g></g><g id="2q3tm3eobn"><g><path d="M 795,745 L 545,715" fill="none" stroke="#5e5ca7" stroke-width="1.5" stroke-linecap="round" stroke-linejoin="round"/></g></g><g id="1c55qs8fr3"><g><path d="M 930,815 L 545,715" fill="none" stroke="#5e5ca7" stroke-width="1.5" stroke-linecap="round" stroke-linejoin="round"/></g></g></svg>